# xmcd CD database file
#
# Track frame offsets:
#	150
#	17585
#	39230
#	59465
#	80325
#	100225
#	118565
#	137257
#	155985
#	178442
#	197582
#	215630
#
# Disc length: 3142 seconds
#
# Revision: 0
# Processed by: cddbd v1.4PL0 Copyright (c) Steve Scherf et al.
# Submitted via: CDex 1.51
#
DISCID=a30c440c
DTITLE=Various Artist - Aqui Esta el Merengue
DYEAR=1900
DGENRE=Merengue
TTITLE0=Juan Luis Guerra - Si Tu Te Vas
TTITLE1=Sergio Vargas - Si Algun Dia La Ves
TTITLE2=New York Band - Si Tu Eres Mi Hombre y Yo Tu Mujer
TTITLE3=Las Chicas Del Can - Ta Pillao
TTITLE4=Conjunto Quisquella - Que Bueno Esta Este Pais
TTITLE5=Maridalia Hernandez - Amantes Secretos
TTITLE6=Wilfrido Vargas - El Pajaro Chowi
TTITLE7=Los Hermanos Rosario - Adolescente
TTITLE8=Alex Bueno - Que Cara Mas Bonita
TTITLE9=Rubby Perez - Dame Veneno
TTITLE10=Ramon Orlando - El Silencio Tu y Yo
TTITLE11=El Clan de la Furia - Se Siente
EXTD=
EXTT0=
EXTT1=
EXTT2=
EXTT3=
EXTT4=
EXTT5=
EXTT6=
EXTT7=
EXTT8=
EXTT9=
EXTT10=
EXTT11=
PLAYORDER=
